{"title":"Family Guy S10E03 720P NO-RAR MKV - DJ DJERO","uid":6785560,"size":214695179,"categoryP":"video","categoryS":"hd___tv_shows","magnet":"?xt=urn:btih:9ccce0009719ccce2be1b7367cdf126de229378f&amp;dn=Family+Guy+S10E03+720P+NO-RAR+MKV+-+DJ+DJERO&amp;tr=udp%3A%2F%2Ftracker.openbittorrent.com%3A80&amp;tr=udp%3A%2F%2Fopen.demonii.com%3A1337&amp;tr=udp%3A%2F%2Ftracker.coppersurfer.tk%3A6969&amp;tr=udp%3A%2F%2Fexodus.desync.com%3A6969","seeders":0,"leechers":0,"uploader":"Dj_Djero","files":-1,"time":1320075194,"description":"Family Guy S10E03 720P NO-RAR MKV - DJ DJERO\n\nPLEASE SEED AND LEAVE A COMMENT\n\nINFO\n\nFormat                           : Matroska\nFormat version                   : Version 2\nFile size                        : 205 MiB\nDuration                         : 21mn 13s\nOverall bit rate                 : 1 349 Kbps\nEncoded date                     : UTC 2011-10-30 13:27:28\nWriting application              : mkvmerge v3.0.0 ('Hang up your Hang-Ups') built on Apr 19 2010 11:58:49\nWriting library                  : libebml v0.7.7 + libmatroska v0.8.1\n\nVideo\nID                               : 1\nFormat                           : AVC\nFormat/Info                      : Advanced Video Codec\nFormat profile                   : &lt;a class=&quot;__cf_email__&quot; href=&quot;/cdn-cgi/l/email-protection&quot; data-cfemail=&quot;521a3b353a121e667c63&quot;&gt;[email&amp;#160;protected]&lt;/a&gt;&lt;script cf-hash='f9e31' type=&quot;text/javascript&quot;&gt;\n/* &lt;![CDATA[ */!function(){try{var t=&quot;currentScript&quot;in document?document.currentScript:function(){for(var t=document.getElementsByTagName(&quot;script&quot;),e=t.length;e--;)if(t[e].getAttribute(&quot;cf-hash&quot;))return t[e]}();if(t&amp;&amp;t.previousSibling){var e,r,n,i,c=t.previousSibling,a=c.getAttribute(&quot;data-cfemail&quot;);if(a){for(e=&quot;&quot;,r=parseInt(a.substr(0,2),16),n=2;a.length-n;n+=2)i=parseInt(a.substr(n,2),16)^r,e+=String.fromCharCode(i);e=document.createTextNode(e),c.parentNode.replaceChild(e,c)}}}catch(u){}}();/* ]]&gt; */&lt;/script&gt;\nFormat settings, CABAC           : Yes\nFormat settings, ReFrames        : 9 frames\nFormat settings, GOP             : M=1, N=15\nCodec ID                         : V_MPEG4/ISO/AVC\nDuration                         : 21mn 13s\nBit rate                         : 874 Kbps\nWidth                            : 1 280 pixels\nHeight                           : 720 pixels\nDisplay aspect ratio             : 16:9\nFrame rate                       : 23.976 fps\nColor space                      : YUV\nChroma subsampling               : 4:2:0\nBit depth                        : 8 bits\nScan type                        : Progressive\nBits/(Pixel*Frame)               : 0.040\nStream size                      : 133 MiB (65%)\nWriting library                  : x264 core 119 r2106 07efeb4\nEncoding settings                : cabac=1 / ref=9 / deblock=1:2:2 / analyse=0x3:0x133 / me=umh / subme=9 / psy=1 / psy_rd=0.40:0.00 / mixed_ref=1 / me_range=28 / chroma_me=1 / trellis=2 / 8x8dct=1 / cqm=0 / deadzone=21,11 / fast_pskip=0 / chroma_qp_offset=-2 / threads=6 / sliced_threads=0 / nr=0 / decimate=1 / interlaced=0 / bluray_compat=0 / constrained_intra=0 / bframes=5 / b_pyramid=2 / b_adapt=2 / b_bias=0 / direct=3 / weightb=1 / open_gop=0 / weightp=2 / keyint=250 / keyint_min=23 / scenecut=40 / intra_refresh=0 / rc_lookahead=60 / rc=crf / mbtree=1 / crf=18.0 / qcomp=0.60 / qpmin=0 / qpmax=69 / qpstep=4 / ip_ratio=1.40 / aq=1:0.60\nLanguage                         : English\n\nAudio\nID                               : 2\nFormat                           : AC-3\nFormat/Info                      : Audio Coding 3\nMode extension                   : CM (complete main)\nCodec ID                         : A_AC3\nDuration                         : 21mn 13s\nBit rate mode                    : Constant\nBit rate                         : 448 Kbps\nChannel(s)                       : 6 channels\nChannel positions                : Front: L C R, Side: L R, LFE\nSampling rate                    : 48.0 KHz\nBit depth                        : 16 bits\nCompression mode                 : Lossy\nStream size                      : 68.0 MiB (33%)\n\n\nPLEASE SEED AND LEAVE A COMMENT\n\n","torrent":{"xt":"urn:btih:9ccce0009719ccce2be1b7367cdf126de229378f","amp;dn":"Family+Guy+S10E03+720P+NO-RAR+MKV+-+DJ+DJERO","amp;tr":["udp%3A%2F%2Ftracker.openbittorrent.com%3A80","udp%3A%2F%2Fopen.demonii.com%3A1337","udp%3A%2F%2Ftracker.coppersurfer.tk%3A6969","udp%3A%2F%2Fexodus.desync.com%3A6969"],"infoHash":"9ccce0009719ccce2be1b7367cdf126de229378f","infoHashBuffer":{"type":"Buffer","data":[156,204,224,0,151,25,204,206,43,225,183,54,124,223,18,109,226,41,55,143]},"announce":[],"urlList":[]}}